<svg xmlns="http://www.w3.org/2000/svg" version="1.1" xmlns:xlink="http://www.w3.org/1999/xlink" xmlns:svgjs="http://svgjs.dev/svgjs" viewBox="0 0 1000 1000"><rect width="1000" height="1000" x="0" y="0" fill="white" stroke="black"></rect><text x="30" y="30" svgjs:data="{&quot;leading&quot;:&quot;1.3&quot;}"><tspan dy="0" x="30" svgjs:data="{&quot;newLined&quot;:true}">COLOR</tspan></text><text x="500" y="30" svgjs:data="{&quot;leading&quot;:&quot;1.3&quot;}"><tspan dy="0" x="500" svgjs:data="{&quot;newLined&quot;:true}">TONE</tspan></text><text x="10" y="100" svgjs:data="{&quot;leading&quot;:&quot;1.3&quot;}"><tspan dy="0" x="10" svgjs:data="{&quot;newLined&quot;:true}">0 - gray</tspan></text><rect width="45" height="40" x="150" y="70" fill="#a0aec0"></rect><text x="250" y="84" svgjs:data="{&quot;leading&quot;:&quot;1.3&quot;}"><tspan dy="0" x="250" svgjs:data="{&quot;newLined&quot;:true}">0</tspan></text><rect width="50" height="25" x="250" y="86" fill="#f7fafc"></rect><text x="310" y="84" svgjs:data="{&quot;leading&quot;:&quot;1.3&quot;}"><tspan dy="0" x="310" svgjs:data="{&quot;newLined&quot;:true}">1</tspan></text><rect width="50" height="25" x="310" y="86" fill="#edf2f7"></rect><text x="370" y="84" svgjs:data="{&quot;leading&quot;:&quot;1.3&quot;}"><tspan dy="0" x="370" svgjs:data="{&quot;newLined&quot;:true}">2</tspan></text><rect width="50" height="25" x="370" y="86" fill="#e2e8f0"></rect><text x="430" y="84" svgjs:data="{&quot;leading&quot;:&quot;1.3&quot;}"><tspan dy="0" x="430" svgjs:data="{&quot;newLined&quot;:true}">3</tspan></text><rect width="50" height="25" x="430" y="86" fill="#cbd5e0"></rect><text x="490" y="84" svgjs:data="{&quot;leading&quot;:&quot;1.3&quot;}"><tspan dy="0" x="490" svgjs:data="{&quot;newLined&quot;:true}">4</tspan></text><rect width="50" height="25" x="490" y="86" fill="#a0aec0"></rect><text x="550" y="84" svgjs:data="{&quot;leading&quot;:&quot;1.3&quot;}"><tspan dy="0" x="550" svgjs:data="{&quot;newLined&quot;:true}">5</tspan></text><rect width="50" height="25" x="550" y="86" fill="#718096"></rect><text x="610" y="84" svgjs:data="{&quot;leading&quot;:&quot;1.3&quot;}"><tspan dy="0" x="610" svgjs:data="{&quot;newLined&quot;:true}">6</tspan></text><rect width="50" height="25" x="610" y="86" fill="#4a5568"></rect><text x="670" y="84" svgjs:data="{&quot;leading&quot;:&quot;1.3&quot;}"><tspan dy="0" x="670" svgjs:data="{&quot;newLined&quot;:true}">7</tspan></text><rect width="50" height="25" x="670" y="86" fill="#2d3748"></rect><text x="730" y="84" svgjs:data="{&quot;leading&quot;:&quot;1.3&quot;}"><tspan dy="0" x="730" svgjs:data="{&quot;newLined&quot;:true}">8</tspan></text><rect width="50" height="25" x="730" y="86" fill="#1a202c"></rect><text x="10" y="150" svgjs:data="{&quot;leading&quot;:&quot;1.3&quot;}"><tspan dy="0" x="10" svgjs:data="{&quot;newLined&quot;:true}">1 - red</tspan></text><rect width="45" height="40" x="150" y="120" fill="#f56565"></rect><text x="250" y="134" svgjs:data="{&quot;leading&quot;:&quot;1.3&quot;}"><tspan dy="0" x="250" svgjs:data="{&quot;newLined&quot;:true}">0</tspan></text><rect width="50" height="25" x="250" y="136" fill="#fff5f5"></rect><text x="310" y="134" svgjs:data="{&quot;leading&quot;:&quot;1.3&quot;}"><tspan dy="0" x="310" svgjs:data="{&quot;newLined&quot;:true}">1</tspan></text><rect width="50" height="25" x="310" y="136" fill="#fed7d7"></rect><text x="370" y="134" svgjs:data="{&quot;leading&quot;:&quot;1.3&quot;}"><tspan dy="0" x="370" svgjs:data="{&quot;newLined&quot;:true}">2</tspan></text><rect width="50" height="25" x="370" y="136" fill="#feb2b2"></rect><text x="430" y="134" svgjs:data="{&quot;leading&quot;:&quot;1.3&quot;}"><tspan dy="0" x="430" svgjs:data="{&quot;newLined&quot;:true}">3</tspan></text><rect width="50" height="25" x="430" y="136" fill="#fc8181"></rect><text x="490" y="134" svgjs:data="{&quot;leading&quot;:&quot;1.3&quot;}"><tspan dy="0" x="490" svgjs:data="{&quot;newLined&quot;:true}">4</tspan></text><rect width="50" height="25" x="490" y="136" fill="#f56565"></rect><text x="550" y="134" svgjs:data="{&quot;leading&quot;:&quot;1.3&quot;}"><tspan dy="0" x="550" svgjs:data="{&quot;newLined&quot;:true}">5</tspan></text><rect width="50" height="25" x="550" y="136" fill="#e53e3e"></rect><text x="610" y="134" svgjs:data="{&quot;leading&quot;:&quot;1.3&quot;}"><tspan dy="0" x="610" svgjs:data="{&quot;newLined&quot;:true}">6</tspan></text><rect width="50" height="25" x="610" y="136" fill="#c53030"></rect><text x="670" y="134" svgjs:data="{&quot;leading&quot;:&quot;1.3&quot;}"><tspan dy="0" x="670" svgjs:data="{&quot;newLined&quot;:true}">7</tspan></text><rect width="50" height="25" x="670" y="136" fill="#9b2c2c"></rect><text x="730" y="134" svgjs:data="{&quot;leading&quot;:&quot;1.3&quot;}"><tspan dy="0" x="730" svgjs:data="{&quot;newLined&quot;:true}">8</tspan></text><rect width="50" height="25" x="730" y="136" fill="#742a2a"></rect><text x="10" y="200" svgjs:data="{&quot;leading&quot;:&quot;1.3&quot;}"><tspan dy="0" x="10" svgjs:data="{&quot;newLined&quot;:true}">2 - orange</tspan></text><rect width="45" height="40" x="150" y="170" fill="#ed8936"></rect><text x="250" y="184" svgjs:data="{&quot;leading&quot;:&quot;1.3&quot;}"><tspan dy="0" x="250" svgjs:data="{&quot;newLined&quot;:true}">0</tspan></text><rect width="50" height="25" x="250" y="186" fill="#fffaf0"></rect><text x="310" y="184" svgjs:data="{&quot;leading&quot;:&quot;1.3&quot;}"><tspan dy="0" x="310" svgjs:data="{&quot;newLined&quot;:true}">1</tspan></text><rect width="50" height="25" x="310" y="186" fill="#feebc8"></rect><text x="370" y="184" svgjs:data="{&quot;leading&quot;:&quot;1.3&quot;}"><tspan dy="0" x="370" svgjs:data="{&quot;newLined&quot;:true}">2</tspan></text><rect width="50" height="25" x="370" y="186" fill="#fbd38d"></rect><text x="430" y="184" svgjs:data="{&quot;leading&quot;:&quot;1.3&quot;}"><tspan dy="0" x="430" svgjs:data="{&quot;newLined&quot;:true}">3</tspan></text><rect width="50" height="25" x="430" y="186" fill="#f6ad55"></rect><text x="490" y="184" svgjs:data="{&quot;leading&quot;:&quot;1.3&quot;}"><tspan dy="0" x="490" svgjs:data="{&quot;newLined&quot;:true}">4</tspan></text><rect width="50" height="25" x="490" y="186" fill="#ed8936"></rect><text x="550" y="184" svgjs:data="{&quot;leading&quot;:&quot;1.3&quot;}"><tspan dy="0" x="550" svgjs:data="{&quot;newLined&quot;:true}">5</tspan></text><rect width="50" height="25" x="550" y="186" fill="#dd6b20"></rect><text x="610" y="184" svgjs:data="{&quot;leading&quot;:&quot;1.3&quot;}"><tspan dy="0" x="610" svgjs:data="{&quot;newLined&quot;:true}">6</tspan></text><rect width="50" height="25" x="610" y="186" fill="#c05621"></rect><text x="670" y="184" svgjs:data="{&quot;leading&quot;:&quot;1.3&quot;}"><tspan dy="0" x="670" svgjs:data="{&quot;newLined&quot;:true}">7</tspan></text><rect width="50" height="25" x="670" y="186" fill="#9c4221"></rect><text x="730" y="184" svgjs:data="{&quot;leading&quot;:&quot;1.3&quot;}"><tspan dy="0" x="730" svgjs:data="{&quot;newLined&quot;:true}">8</tspan></text><rect width="50" height="25" x="730" y="186" fill="#7b341e"></rect><text x="10" y="250" svgjs:data="{&quot;leading&quot;:&quot;1.3&quot;}"><tspan dy="0" x="10" svgjs:data="{&quot;newLined&quot;:true}">3 - amber</tspan></text><rect width="45" height="40" x="150" y="220" fill="#f59e0b"></rect><text x="250" y="234" svgjs:data="{&quot;leading&quot;:&quot;1.3&quot;}"><tspan dy="0" x="250" svgjs:data="{&quot;newLined&quot;:true}">0</tspan></text><rect width="50" height="25" x="250" y="236" fill="#fef3c7"></rect><text x="310" y="234" svgjs:data="{&quot;leading&quot;:&quot;1.3&quot;}"><tspan dy="0" x="310" svgjs:data="{&quot;newLined&quot;:true}">1</tspan></text><rect width="50" height="25" x="310" y="236" fill="#fde68a"></rect><text x="370" y="234" svgjs:data="{&quot;leading&quot;:&quot;1.3&quot;}"><tspan dy="0" x="370" svgjs:data="{&quot;newLined&quot;:true}">2</tspan></text><rect width="50" height="25" x="370" y="236" fill="#fcd34d"></rect><text x="430" y="234" svgjs:data="{&quot;leading&quot;:&quot;1.3&quot;}"><tspan dy="0" x="430" svgjs:data="{&quot;newLined&quot;:true}">3</tspan></text><rect width="50" height="25" x="430" y="236" fill="#fbbf24"></rect><text x="490" y="234" svgjs:data="{&quot;leading&quot;:&quot;1.3&quot;}"><tspan dy="0" x="490" svgjs:data="{&quot;newLined&quot;:true}">4</tspan></text><rect width="50" height="25" x="490" y="236" fill="#f59e0b"></rect><text x="550" y="234" svgjs:data="{&quot;leading&quot;:&quot;1.3&quot;}"><tspan dy="0" x="550" svgjs:data="{&quot;newLined&quot;:true}">5</tspan></text><rect width="50" height="25" x="550" y="236" fill="#d97706"></rect><text x="610" y="234" svgjs:data="{&quot;leading&quot;:&quot;1.3&quot;}"><tspan dy="0" x="610" svgjs:data="{&quot;newLined&quot;:true}">6</tspan></text><rect width="50" height="25" x="610" y="236" fill="#b45309"></rect><text x="670" y="234" svgjs:data="{&quot;leading&quot;:&quot;1.3&quot;}"><tspan dy="0" x="670" svgjs:data="{&quot;newLined&quot;:true}">7</tspan></text><rect width="50" height="25" x="670" y="236" fill="#92400e"></rect><text x="730" y="234" svgjs:data="{&quot;leading&quot;:&quot;1.3&quot;}"><tspan dy="0" x="730" svgjs:data="{&quot;newLined&quot;:true}">8</tspan></text><rect width="50" height="25" x="730" y="236" fill="#78350f"></rect><text x="10" y="300" svgjs:data="{&quot;leading&quot;:&quot;1.3&quot;}"><tspan dy="0" x="10" svgjs:data="{&quot;newLined&quot;:true}">4 - lime</tspan></text><rect width="45" height="40" x="150" y="270" fill="#84cc16"></rect><text x="250" y="284" svgjs:data="{&quot;leading&quot;:&quot;1.3&quot;}"><tspan dy="0" x="250" svgjs:data="{&quot;newLined&quot;:true}">0</tspan></text><rect width="50" height="25" x="250" y="286" fill="#ecfccb"></rect><text x="310" y="284" svgjs:data="{&quot;leading&quot;:&quot;1.3&quot;}"><tspan dy="0" x="310" svgjs:data="{&quot;newLined&quot;:true}">1</tspan></text><rect width="50" height="25" x="310" y="286" fill="#d9f99d"></rect><text x="370" y="284" svgjs:data="{&quot;leading&quot;:&quot;1.3&quot;}"><tspan dy="0" x="370" svgjs:data="{&quot;newLined&quot;:true}">2</tspan></text><rect width="50" height="25" x="370" y="286" fill="#bef264"></rect><text x="430" y="284" svgjs:data="{&quot;leading&quot;:&quot;1.3&quot;}"><tspan dy="0" x="430" svgjs:data="{&quot;newLined&quot;:true}">3</tspan></text><rect width="50" height="25" x="430" y="286" fill="#a3e635"></rect><text x="490" y="284" svgjs:data="{&quot;leading&quot;:&quot;1.3&quot;}"><tspan dy="0" x="490" svgjs:data="{&quot;newLined&quot;:true}">4</tspan></text><rect width="50" height="25" x="490" y="286" fill="#84cc16"></rect><text x="550" y="284" svgjs:data="{&quot;leading&quot;:&quot;1.3&quot;}"><tspan dy="0" x="550" svgjs:data="{&quot;newLined&quot;:true}">5</tspan></text><rect width="50" height="25" x="550" y="286" fill="#65a30d"></rect><text x="610" y="284" svgjs:data="{&quot;leading&quot;:&quot;1.3&quot;}"><tspan dy="0" x="610" svgjs:data="{&quot;newLined&quot;:true}">6</tspan></text><rect width="50" height="25" x="610" y="286" fill="#4d7c0f"></rect><text x="670" y="284" svgjs:data="{&quot;leading&quot;:&quot;1.3&quot;}"><tspan dy="0" x="670" svgjs:data="{&quot;newLined&quot;:true}">7</tspan></text><rect width="50" height="25" x="670" y="286" fill="#3f6212"></rect><text x="730" y="284" svgjs:data="{&quot;leading&quot;:&quot;1.3&quot;}"><tspan dy="0" x="730" svgjs:data="{&quot;newLined&quot;:true}">8</tspan></text><rect width="50" height="25" x="730" y="286" fill="#365314"></rect><text x="10" y="350" svgjs:data="{&quot;leading&quot;:&quot;1.3&quot;}"><tspan dy="0" x="10" svgjs:data="{&quot;newLined&quot;:true}">5 - emerald</tspan></text><rect width="45" height="40" x="150" y="320" fill="#10b981"></rect><text x="250" y="334" svgjs:data="{&quot;leading&quot;:&quot;1.3&quot;}"><tspan dy="0" x="250" svgjs:data="{&quot;newLined&quot;:true}">0</tspan></text><rect width="50" height="25" x="250" y="336" fill="#d1fae5"></rect><text x="310" y="334" svgjs:data="{&quot;leading&quot;:&quot;1.3&quot;}"><tspan dy="0" x="310" svgjs:data="{&quot;newLined&quot;:true}">1</tspan></text><rect width="50" height="25" x="310" y="336" fill="#a7f3d0"></rect><text x="370" y="334" svgjs:data="{&quot;leading&quot;:&quot;1.3&quot;}"><tspan dy="0" x="370" svgjs:data="{&quot;newLined&quot;:true}">2</tspan></text><rect width="50" height="25" x="370" y="336" fill="#6ee7b7"></rect><text x="430" y="334" svgjs:data="{&quot;leading&quot;:&quot;1.3&quot;}"><tspan dy="0" x="430" svgjs:data="{&quot;newLined&quot;:true}">3</tspan></text><rect width="50" height="25" x="430" y="336" fill="#34d399"></rect><text x="490" y="334" svgjs:data="{&quot;leading&quot;:&quot;1.3&quot;}"><tspan dy="0" x="490" svgjs:data="{&quot;newLined&quot;:true}">4</tspan></text><rect width="50" height="25" x="490" y="336" fill="#10b981"></rect><text x="550" y="334" svgjs:data="{&quot;leading&quot;:&quot;1.3&quot;}"><tspan dy="0" x="550" svgjs:data="{&quot;newLined&quot;:true}">5</tspan></text><rect width="50" height="25" x="550" y="336" fill="#059669"></rect><text x="610" y="334" svgjs:data="{&quot;leading&quot;:&quot;1.3&quot;}"><tspan dy="0" x="610" svgjs:data="{&quot;newLined&quot;:true}">6</tspan></text><rect width="50" height="25" x="610" y="336" fill="#047857"></rect><text x="670" y="334" svgjs:data="{&quot;leading&quot;:&quot;1.3&quot;}"><tspan dy="0" x="670" svgjs:data="{&quot;newLined&quot;:true}">7</tspan></text><rect width="50" height="25" x="670" y="336" fill="#065f46"></rect><text x="730" y="334" svgjs:data="{&quot;leading&quot;:&quot;1.3&quot;}"><tspan dy="0" x="730" svgjs:data="{&quot;newLined&quot;:true}">8</tspan></text><rect width="50" height="25" x="730" y="336" fill="#064e3b"></rect><text x="10" y="400" svgjs:data="{&quot;leading&quot;:&quot;1.3&quot;}"><tspan dy="0" x="10" svgjs:data="{&quot;newLined&quot;:true}">6 - cyan</tspan></text><rect width="45" height="40" x="150" y="370" fill="#06b6d4"></rect><text x="250" y="384" svgjs:data="{&quot;leading&quot;:&quot;1.3&quot;}"><tspan dy="0" x="250" svgjs:data="{&quot;newLined&quot;:true}">0</tspan></text><rect width="50" height="25" x="250" y="386" fill="#cffafe"></rect><text x="310" y="384" svgjs:data="{&quot;leading&quot;:&quot;1.3&quot;}"><tspan dy="0" x="310" svgjs:data="{&quot;newLined&quot;:true}">1</tspan></text><rect width="50" height="25" x="310" y="386" fill="#a5f3fc"></rect><text x="370" y="384" svgjs:data="{&quot;leading&quot;:&quot;1.3&quot;}"><tspan dy="0" x="370" svgjs:data="{&quot;newLined&quot;:true}">2</tspan></text><rect width="50" height="25" x="370" y="386" fill="#67e8f9"></rect><text x="430" y="384" svgjs:data="{&quot;leading&quot;:&quot;1.3&quot;}"><tspan dy="0" x="430" svgjs:data="{&quot;newLined&quot;:true}">3</tspan></text><rect width="50" height="25" x="430" y="386" fill="#22d3ee"></rect><text x="490" y="384" svgjs:data="{&quot;leading&quot;:&quot;1.3&quot;}"><tspan dy="0" x="490" svgjs:data="{&quot;newLined&quot;:true}">4</tspan></text><rect width="50" height="25" x="490" y="386" fill="#06b6d4"></rect><text x="550" y="384" svgjs:data="{&quot;leading&quot;:&quot;1.3&quot;}"><tspan dy="0" x="550" svgjs:data="{&quot;newLined&quot;:true}">5</tspan></text><rect width="50" height="25" x="550" y="386" fill="#0891b2"></rect><text x="610" y="384" svgjs:data="{&quot;leading&quot;:&quot;1.3&quot;}"><tspan dy="0" x="610" svgjs:data="{&quot;newLined&quot;:true}">6</tspan></text><rect width="50" height="25" x="610" y="386" fill="#0e7490"></rect><text x="670" y="384" svgjs:data="{&quot;leading&quot;:&quot;1.3&quot;}"><tspan dy="0" x="670" svgjs:data="{&quot;newLined&quot;:true}">7</tspan></text><rect width="50" height="25" x="670" y="386" fill="#155e75"></rect><text x="730" y="384" svgjs:data="{&quot;leading&quot;:&quot;1.3&quot;}"><tspan dy="0" x="730" svgjs:data="{&quot;newLined&quot;:true}">8</tspan></text><rect width="50" height="25" x="730" y="386" fill="#164e63"></rect><text x="10" y="450" svgjs:data="{&quot;leading&quot;:&quot;1.3&quot;}"><tspan dy="0" x="10" svgjs:data="{&quot;newLined&quot;:true}">7 - sky</tspan></text><rect width="45" height="40" x="150" y="420" fill="#0ea5e9"></rect><text x="250" y="434" svgjs:data="{&quot;leading&quot;:&quot;1.3&quot;}"><tspan dy="0" x="250" svgjs:data="{&quot;newLined&quot;:true}">0</tspan></text><rect width="50" height="25" x="250" y="436" fill="#e0f2fe"></rect><text x="310" y="434" svgjs:data="{&quot;leading&quot;:&quot;1.3&quot;}"><tspan dy="0" x="310" svgjs:data="{&quot;newLined&quot;:true}">1</tspan></text><rect width="50" height="25" x="310" y="436" fill="#bae6fd"></rect><text x="370" y="434" svgjs:data="{&quot;leading&quot;:&quot;1.3&quot;}"><tspan dy="0" x="370" svgjs:data="{&quot;newLined&quot;:true}">2</tspan></text><rect width="50" height="25" x="370" y="436" fill="#7dd3fc"></rect><text x="430" y="434" svgjs:data="{&quot;leading&quot;:&quot;1.3&quot;}"><tspan dy="0" x="430" svgjs:data="{&quot;newLined&quot;:true}">3</tspan></text><rect width="50" height="25" x="430" y="436" fill="#38bdf8"></rect><text x="490" y="434" svgjs:data="{&quot;leading&quot;:&quot;1.3&quot;}"><tspan dy="0" x="490" svgjs:data="{&quot;newLined&quot;:true}">4</tspan></text><rect width="50" height="25" x="490" y="436" fill="#0ea5e9"></rect><text x="550" y="434" svgjs:data="{&quot;leading&quot;:&quot;1.3&quot;}"><tspan dy="0" x="550" svgjs:data="{&quot;newLined&quot;:true}">5</tspan></text><rect width="50" height="25" x="550" y="436" fill="#0284c7"></rect><text x="610" y="434" svgjs:data="{&quot;leading&quot;:&quot;1.3&quot;}"><tspan dy="0" x="610" svgjs:data="{&quot;newLined&quot;:true}">6</tspan></text><rect width="50" height="25" x="610" y="436" fill="#0369a1"></rect><text x="670" y="434" svgjs:data="{&quot;leading&quot;:&quot;1.3&quot;}"><tspan dy="0" x="670" svgjs:data="{&quot;newLined&quot;:true}">7</tspan></text><rect width="50" height="25" x="670" y="436" fill="#075985"></rect><text x="730" y="434" svgjs:data="{&quot;leading&quot;:&quot;1.3&quot;}"><tspan dy="0" x="730" svgjs:data="{&quot;newLined&quot;:true}">8</tspan></text><rect width="50" height="25" x="730" y="436" fill="#0c4a6e"></rect><text x="10" y="500" svgjs:data="{&quot;leading&quot;:&quot;1.3&quot;}"><tspan dy="0" x="10" svgjs:data="{&quot;newLined&quot;:true}">8 - violet</tspan></text><rect width="45" height="40" x="150" y="470" fill="#8b5cf6"></rect><text x="250" y="484" svgjs:data="{&quot;leading&quot;:&quot;1.3&quot;}"><tspan dy="0" x="250" svgjs:data="{&quot;newLined&quot;:true}">0</tspan></text><rect width="50" height="25" x="250" y="486" fill="#ede9fe"></rect><text x="310" y="484" svgjs:data="{&quot;leading&quot;:&quot;1.3&quot;}"><tspan dy="0" x="310" svgjs:data="{&quot;newLined&quot;:true}">1</tspan></text><rect width="50" height="25" x="310" y="486" fill="#ddd6fe"></rect><text x="370" y="484" svgjs:data="{&quot;leading&quot;:&quot;1.3&quot;}"><tspan dy="0" x="370" svgjs:data="{&quot;newLined&quot;:true}">2</tspan></text><rect width="50" height="25" x="370" y="486" fill="#c4b5fd"></rect><text x="430" y="484" svgjs:data="{&quot;leading&quot;:&quot;1.3&quot;}"><tspan dy="0" x="430" svgjs:data="{&quot;newLined&quot;:true}">3</tspan></text><rect width="50" height="25" x="430" y="486" fill="#a78bfa"></rect><text x="490" y="484" svgjs:data="{&quot;leading&quot;:&quot;1.3&quot;}"><tspan dy="0" x="490" svgjs:data="{&quot;newLined&quot;:true}">4</tspan></text><rect width="50" height="25" x="490" y="486" fill="#8b5cf6"></rect><text x="550" y="484" svgjs:data="{&quot;leading&quot;:&quot;1.3&quot;}"><tspan dy="0" x="550" svgjs:data="{&quot;newLined&quot;:true}">5</tspan></text><rect width="50" height="25" x="550" y="486" fill="#7c3aed"></rect><text x="610" y="484" svgjs:data="{&quot;leading&quot;:&quot;1.3&quot;}"><tspan dy="0" x="610" svgjs:data="{&quot;newLined&quot;:true}">6</tspan></text><rect width="50" height="25" x="610" y="486" fill="#6d28d9"></rect><text x="670" y="484" svgjs:data="{&quot;leading&quot;:&quot;1.3&quot;}"><tspan dy="0" x="670" svgjs:data="{&quot;newLined&quot;:true}">7</tspan></text><rect width="50" height="25" x="670" y="486" fill="#5b21b6"></rect><text x="730" y="484" svgjs:data="{&quot;leading&quot;:&quot;1.3&quot;}"><tspan dy="0" x="730" svgjs:data="{&quot;newLined&quot;:true}">8</tspan></text><rect width="50" height="25" x="730" y="486" fill="#4c1d95"></rect><text x="10" y="550" svgjs:data="{&quot;leading&quot;:&quot;1.3&quot;}"><tspan dy="0" x="10" svgjs:data="{&quot;newLined&quot;:true}">9 - fuchsia</tspan></text><rect width="45" height="40" x="150" y="520" fill="#d946ef"></rect><text x="250" y="534" svgjs:data="{&quot;leading&quot;:&quot;1.3&quot;}"><tspan dy="0" x="250" svgjs:data="{&quot;newLined&quot;:true}">0</tspan></text><rect width="50" height="25" x="250" y="536" fill="#fae8ff"></rect><text x="310" y="534" svgjs:data="{&quot;leading&quot;:&quot;1.3&quot;}"><tspan dy="0" x="310" svgjs:data="{&quot;newLined&quot;:true}">1</tspan></text><rect width="50" height="25" x="310" y="536" fill="#f5d0fe"></rect><text x="370" y="534" svgjs:data="{&quot;leading&quot;:&quot;1.3&quot;}"><tspan dy="0" x="370" svgjs:data="{&quot;newLined&quot;:true}">2</tspan></text><rect width="50" height="25" x="370" y="536" fill="#f0abfc"></rect><text x="430" y="534" svgjs:data="{&quot;leading&quot;:&quot;1.3&quot;}"><tspan dy="0" x="430" svgjs:data="{&quot;newLined&quot;:true}">3</tspan></text><rect width="50" height="25" x="430" y="536" fill="#e879f9"></rect><text x="490" y="534" svgjs:data="{&quot;leading&quot;:&quot;1.3&quot;}"><tspan dy="0" x="490" svgjs:data="{&quot;newLined&quot;:true}">4</tspan></text><rect width="50" height="25" x="490" y="536" fill="#d946ef"></rect><text x="550" y="534" svgjs:data="{&quot;leading&quot;:&quot;1.3&quot;}"><tspan dy="0" x="550" svgjs:data="{&quot;newLined&quot;:true}">5</tspan></text><rect width="50" height="25" x="550" y="536" fill="#c026d3"></rect><text x="610" y="534" svgjs:data="{&quot;leading&quot;:&quot;1.3&quot;}"><tspan dy="0" x="610" svgjs:data="{&quot;newLined&quot;:true}">6</tspan></text><rect width="50" height="25" x="610" y="536" fill="#a21caf"></rect><text x="670" y="534" svgjs:data="{&quot;leading&quot;:&quot;1.3&quot;}"><tspan dy="0" x="670" svgjs:data="{&quot;newLined&quot;:true}">7</tspan></text><rect width="50" height="25" x="670" y="536" fill="#86198f"></rect><text x="730" y="534" svgjs:data="{&quot;leading&quot;:&quot;1.3&quot;}"><tspan dy="0" x="730" svgjs:data="{&quot;newLined&quot;:true}">8</tspan></text><rect width="50" height="25" x="730" y="536" fill="#701a75"></rect><text x="10" y="600" svgjs:data="{&quot;leading&quot;:&quot;1.3&quot;}"><tspan dy="0" x="10" svgjs:data="{&quot;newLined&quot;:true}">10 - rose</tspan></text><rect width="45" height="40" x="150" y="570" fill="#f43f5e"></rect><text x="250" y="584" svgjs:data="{&quot;leading&quot;:&quot;1.3&quot;}"><tspan dy="0" x="250" svgjs:data="{&quot;newLined&quot;:true}">0</tspan></text><rect width="50" height="25" x="250" y="586" fill="#ffe4e6"></rect><text x="310" y="584" svgjs:data="{&quot;leading&quot;:&quot;1.3&quot;}"><tspan dy="0" x="310" svgjs:data="{&quot;newLined&quot;:true}">1</tspan></text><rect width="50" height="25" x="310" y="586" fill="#fecdd3"></rect><text x="370" y="584" svgjs:data="{&quot;leading&quot;:&quot;1.3&quot;}"><tspan dy="0" x="370" svgjs:data="{&quot;newLined&quot;:true}">2</tspan></text><rect width="50" height="25" x="370" y="586" fill="#fda4af"></rect><text x="430" y="584" svgjs:data="{&quot;leading&quot;:&quot;1.3&quot;}"><tspan dy="0" x="430" svgjs:data="{&quot;newLined&quot;:true}">3</tspan></text><rect width="50" height="25" x="430" y="586" fill="#fb7185"></rect><text x="490" y="584" svgjs:data="{&quot;leading&quot;:&quot;1.3&quot;}"><tspan dy="0" x="490" svgjs:data="{&quot;newLined&quot;:true}">4</tspan></text><rect width="50" height="25" x="490" y="586" fill="#f43f5e"></rect><text x="550" y="584" svgjs:data="{&quot;leading&quot;:&quot;1.3&quot;}"><tspan dy="0" x="550" svgjs:data="{&quot;newLined&quot;:true}">5</tspan></text><rect width="50" height="25" x="550" y="586" fill="#e11d48"></rect><text x="610" y="584" svgjs:data="{&quot;leading&quot;:&quot;1.3&quot;}"><tspan dy="0" x="610" svgjs:data="{&quot;newLined&quot;:true}">6</tspan></text><rect width="50" height="25" x="610" y="586" fill="#be123c"></rect><text x="670" y="584" svgjs:data="{&quot;leading&quot;:&quot;1.3&quot;}"><tspan dy="0" x="670" svgjs:data="{&quot;newLined&quot;:true}">7</tspan></text><rect width="50" height="25" x="670" y="586" fill="#9f1239"></rect><text x="730" y="584" svgjs:data="{&quot;leading&quot;:&quot;1.3&quot;}"><tspan dy="0" x="730" svgjs:data="{&quot;newLined&quot;:true}">8</tspan></text><rect width="50" height="25" x="730" y="586" fill="#881337"></rect><text x="10" y="650" svgjs:data="{&quot;leading&quot;:&quot;1.3&quot;}"><tspan dy="0" x="10" svgjs:data="{&quot;newLined&quot;:true}">11 - yellow</tspan></text><rect width="45" height="40" x="150" y="620" fill="#ecc94b"></rect><text x="250" y="634" svgjs:data="{&quot;leading&quot;:&quot;1.3&quot;}"><tspan dy="0" x="250" svgjs:data="{&quot;newLined&quot;:true}">0</tspan></text><rect width="50" height="25" x="250" y="636" fill="#fffff0"></rect><text x="310" y="634" svgjs:data="{&quot;leading&quot;:&quot;1.3&quot;}"><tspan dy="0" x="310" svgjs:data="{&quot;newLined&quot;:true}">1</tspan></text><rect width="50" height="25" x="310" y="636" fill="#fefcbf"></rect><text x="370" y="634" svgjs:data="{&quot;leading&quot;:&quot;1.3&quot;}"><tspan dy="0" x="370" svgjs:data="{&quot;newLined&quot;:true}">2</tspan></text><rect width="50" height="25" x="370" y="636" fill="#faf089"></rect><text x="430" y="634" svgjs:data="{&quot;leading&quot;:&quot;1.3&quot;}"><tspan dy="0" x="430" svgjs:data="{&quot;newLined&quot;:true}">3</tspan></text><rect width="50" height="25" x="430" y="636" fill="#f6e05e"></rect><text x="490" y="634" svgjs:data="{&quot;leading&quot;:&quot;1.3&quot;}"><tspan dy="0" x="490" svgjs:data="{&quot;newLined&quot;:true}">4</tspan></text><rect width="50" height="25" x="490" y="636" fill="#ecc94b"></rect><text x="550" y="634" svgjs:data="{&quot;leading&quot;:&quot;1.3&quot;}"><tspan dy="0" x="550" svgjs:data="{&quot;newLined&quot;:true}">5</tspan></text><rect width="50" height="25" x="550" y="636" fill="#d69e2e"></rect><text x="610" y="634" svgjs:data="{&quot;leading&quot;:&quot;1.3&quot;}"><tspan dy="0" x="610" svgjs:data="{&quot;newLined&quot;:true}">6</tspan></text><rect width="50" height="25" x="610" y="636" fill="#b7791f"></rect><text x="670" y="634" svgjs:data="{&quot;leading&quot;:&quot;1.3&quot;}"><tspan dy="0" x="670" svgjs:data="{&quot;newLined&quot;:true}">7</tspan></text><rect width="50" height="25" x="670" y="636" fill="#975a16"></rect><text x="730" y="634" svgjs:data="{&quot;leading&quot;:&quot;1.3&quot;}"><tspan dy="0" x="730" svgjs:data="{&quot;newLined&quot;:true}">8</tspan></text><rect width="50" height="25" x="730" y="636" fill="#744210"></rect><text x="10" y="700" svgjs:data="{&quot;leading&quot;:&quot;1.3&quot;}"><tspan dy="0" x="10" svgjs:data="{&quot;newLined&quot;:true}">12 - green</tspan></text><rect width="45" height="40" x="150" y="670" fill="#48bb78"></rect><text x="250" y="684" svgjs:data="{&quot;leading&quot;:&quot;1.3&quot;}"><tspan dy="0" x="250" svgjs:data="{&quot;newLined&quot;:true}">0</tspan></text><rect width="50" height="25" x="250" y="686" fill="#f0fff4"></rect><text x="310" y="684" svgjs:data="{&quot;leading&quot;:&quot;1.3&quot;}"><tspan dy="0" x="310" svgjs:data="{&quot;newLined&quot;:true}">1</tspan></text><rect width="50" height="25" x="310" y="686" fill="#c6f6d5"></rect><text x="370" y="684" svgjs:data="{&quot;leading&quot;:&quot;1.3&quot;}"><tspan dy="0" x="370" svgjs:data="{&quot;newLined&quot;:true}">2</tspan></text><rect width="50" height="25" x="370" y="686" fill="#9ae6b4"></rect><text x="430" y="684" svgjs:data="{&quot;leading&quot;:&quot;1.3&quot;}"><tspan dy="0" x="430" svgjs:data="{&quot;newLined&quot;:true}">3</tspan></text><rect width="50" height="25" x="430" y="686" fill="#68d391"></rect><text x="490" y="684" svgjs:data="{&quot;leading&quot;:&quot;1.3&quot;}"><tspan dy="0" x="490" svgjs:data="{&quot;newLined&quot;:true}">4</tspan></text><rect width="50" height="25" x="490" y="686" fill="#48bb78"></rect><text x="550" y="684" svgjs:data="{&quot;leading&quot;:&quot;1.3&quot;}"><tspan dy="0" x="550" svgjs:data="{&quot;newLined&quot;:true}">5</tspan></text><rect width="50" height="25" x="550" y="686" fill="#38a169"></rect><text x="610" y="684" svgjs:data="{&quot;leading&quot;:&quot;1.3&quot;}"><tspan dy="0" x="610" svgjs:data="{&quot;newLined&quot;:true}">6</tspan></text><rect width="50" height="25" x="610" y="686" fill="#2f855a"></rect><text x="670" y="684" svgjs:data="{&quot;leading&quot;:&quot;1.3&quot;}"><tspan dy="0" x="670" svgjs:data="{&quot;newLined&quot;:true}">7</tspan></text><rect width="50" height="25" x="670" y="686" fill="#276749"></rect><text x="730" y="684" svgjs:data="{&quot;leading&quot;:&quot;1.3&quot;}"><tspan dy="0" x="730" svgjs:data="{&quot;newLined&quot;:true}">8</tspan></text><rect width="50" height="25" x="730" y="686" fill="#22543d"></rect><text x="10" y="750" svgjs:data="{&quot;leading&quot;:&quot;1.3&quot;}"><tspan dy="0" x="10" svgjs:data="{&quot;newLined&quot;:true}">13 - teal</tspan></text><rect width="45" height="40" x="150" y="720" fill="#38b2ac"></rect><text x="250" y="734" svgjs:data="{&quot;leading&quot;:&quot;1.3&quot;}"><tspan dy="0" x="250" svgjs:data="{&quot;newLined&quot;:true}">0</tspan></text><rect width="50" height="25" x="250" y="736" fill="#e6fffa"></rect><text x="310" y="734" svgjs:data="{&quot;leading&quot;:&quot;1.3&quot;}"><tspan dy="0" x="310" svgjs:data="{&quot;newLined&quot;:true}">1</tspan></text><rect width="50" height="25" x="310" y="736" fill="#b2f5ea"></rect><text x="370" y="734" svgjs:data="{&quot;leading&quot;:&quot;1.3&quot;}"><tspan dy="0" x="370" svgjs:data="{&quot;newLined&quot;:true}">2</tspan></text><rect width="50" height="25" x="370" y="736" fill="#81e6d9"></rect><text x="430" y="734" svgjs:data="{&quot;leading&quot;:&quot;1.3&quot;}"><tspan dy="0" x="430" svgjs:data="{&quot;newLined&quot;:true}">3</tspan></text><rect width="50" height="25" x="430" y="736" fill="#4fd1c5"></rect><text x="490" y="734" svgjs:data="{&quot;leading&quot;:&quot;1.3&quot;}"><tspan dy="0" x="490" svgjs:data="{&quot;newLined&quot;:true}">4</tspan></text><rect width="50" height="25" x="490" y="736" fill="#38b2ac"></rect><text x="550" y="734" svgjs:data="{&quot;leading&quot;:&quot;1.3&quot;}"><tspan dy="0" x="550" svgjs:data="{&quot;newLined&quot;:true}">5</tspan></text><rect width="50" height="25" x="550" y="736" fill="#319795"></rect><text x="610" y="734" svgjs:data="{&quot;leading&quot;:&quot;1.3&quot;}"><tspan dy="0" x="610" svgjs:data="{&quot;newLined&quot;:true}">6</tspan></text><rect width="50" height="25" x="610" y="736" fill="#2c7a7b"></rect><text x="670" y="734" svgjs:data="{&quot;leading&quot;:&quot;1.3&quot;}"><tspan dy="0" x="670" svgjs:data="{&quot;newLined&quot;:true}">7</tspan></text><rect width="50" height="25" x="670" y="736" fill="#285e61"></rect><text x="730" y="734" svgjs:data="{&quot;leading&quot;:&quot;1.3&quot;}"><tspan dy="0" x="730" svgjs:data="{&quot;newLined&quot;:true}">8</tspan></text><rect width="50" height="25" x="730" y="736" fill="#234e52"></rect><text x="10" y="800" svgjs:data="{&quot;leading&quot;:&quot;1.3&quot;}"><tspan dy="0" x="10" svgjs:data="{&quot;newLined&quot;:true}">14 - blue</tspan></text><rect width="45" height="40" x="150" y="770" fill="#4299e1"></rect><text x="250" y="784" svgjs:data="{&quot;leading&quot;:&quot;1.3&quot;}"><tspan dy="0" x="250" svgjs:data="{&quot;newLined&quot;:true}">0</tspan></text><rect width="50" height="25" x="250" y="786" fill="#ebf8ff"></rect><text x="310" y="784" svgjs:data="{&quot;leading&quot;:&quot;1.3&quot;}"><tspan dy="0" x="310" svgjs:data="{&quot;newLined&quot;:true}">1</tspan></text><rect width="50" height="25" x="310" y="786" fill="#bee3f8"></rect><text x="370" y="784" svgjs:data="{&quot;leading&quot;:&quot;1.3&quot;}"><tspan dy="0" x="370" svgjs:data="{&quot;newLined&quot;:true}">2</tspan></text><rect width="50" height="25" x="370" y="786" fill="#90cdf4"></rect><text x="430" y="784" svgjs:data="{&quot;leading&quot;:&quot;1.3&quot;}"><tspan dy="0" x="430" svgjs:data="{&quot;newLined&quot;:true}">3</tspan></text><rect width="50" height="25" x="430" y="786" fill="#63b3ed"></rect><text x="490" y="784" svgjs:data="{&quot;leading&quot;:&quot;1.3&quot;}"><tspan dy="0" x="490" svgjs:data="{&quot;newLined&quot;:true}">4</tspan></text><rect width="50" height="25" x="490" y="786" fill="#4299e1"></rect><text x="550" y="784" svgjs:data="{&quot;leading&quot;:&quot;1.3&quot;}"><tspan dy="0" x="550" svgjs:data="{&quot;newLined&quot;:true}">5</tspan></text><rect width="50" height="25" x="550" y="786" fill="#3182ce"></rect><text x="610" y="784" svgjs:data="{&quot;leading&quot;:&quot;1.3&quot;}"><tspan dy="0" x="610" svgjs:data="{&quot;newLined&quot;:true}">6</tspan></text><rect width="50" height="25" x="610" y="786" fill="#2b6cb0"></rect><text x="670" y="784" svgjs:data="{&quot;leading&quot;:&quot;1.3&quot;}"><tspan dy="0" x="670" svgjs:data="{&quot;newLined&quot;:true}">7</tspan></text><rect width="50" height="25" x="670" y="786" fill="#2c5282"></rect><text x="730" y="784" svgjs:data="{&quot;leading&quot;:&quot;1.3&quot;}"><tspan dy="0" x="730" svgjs:data="{&quot;newLined&quot;:true}">8</tspan></text><rect width="50" height="25" x="730" y="786" fill="#2a4365"></rect><text x="10" y="850" svgjs:data="{&quot;leading&quot;:&quot;1.3&quot;}"><tspan dy="0" x="10" svgjs:data="{&quot;newLined&quot;:true}">15 - indigo</tspan></text><rect width="45" height="40" x="150" y="820" fill="#667eea"></rect><text x="250" y="834" svgjs:data="{&quot;leading&quot;:&quot;1.3&quot;}"><tspan dy="0" x="250" svgjs:data="{&quot;newLined&quot;:true}">0</tspan></text><rect width="50" height="25" x="250" y="836" fill="#ebf4ff"></rect><text x="310" y="834" svgjs:data="{&quot;leading&quot;:&quot;1.3&quot;}"><tspan dy="0" x="310" svgjs:data="{&quot;newLined&quot;:true}">1</tspan></text><rect width="50" height="25" x="310" y="836" fill="#c3dafe"></rect><text x="370" y="834" svgjs:data="{&quot;leading&quot;:&quot;1.3&quot;}"><tspan dy="0" x="370" svgjs:data="{&quot;newLined&quot;:true}">2</tspan></text><rect width="50" height="25" x="370" y="836" fill="#a3bffa"></rect><text x="430" y="834" svgjs:data="{&quot;leading&quot;:&quot;1.3&quot;}"><tspan dy="0" x="430" svgjs:data="{&quot;newLined&quot;:true}">3</tspan></text><rect width="50" height="25" x="430" y="836" fill="#7f9cf5"></rect><text x="490" y="834" svgjs:data="{&quot;leading&quot;:&quot;1.3&quot;}"><tspan dy="0" x="490" svgjs:data="{&quot;newLined&quot;:true}">4</tspan></text><rect width="50" height="25" x="490" y="836" fill="#667eea"></rect><text x="550" y="834" svgjs:data="{&quot;leading&quot;:&quot;1.3&quot;}"><tspan dy="0" x="550" svgjs:data="{&quot;newLined&quot;:true}">5</tspan></text><rect width="50" height="25" x="550" y="836" fill="#5a67d8"></rect><text x="610" y="834" svgjs:data="{&quot;leading&quot;:&quot;1.3&quot;}"><tspan dy="0" x="610" svgjs:data="{&quot;newLined&quot;:true}">6</tspan></text><rect width="50" height="25" x="610" y="836" fill="#4c51bf"></rect><text x="670" y="834" svgjs:data="{&quot;leading&quot;:&quot;1.3&quot;}"><tspan dy="0" x="670" svgjs:data="{&quot;newLined&quot;:true}">7</tspan></text><rect width="50" height="25" x="670" y="836" fill="#434190"></rect><text x="730" y="834" svgjs:data="{&quot;leading&quot;:&quot;1.3&quot;}"><tspan dy="0" x="730" svgjs:data="{&quot;newLined&quot;:true}">8</tspan></text><rect width="50" height="25" x="730" y="836" fill="#3c366b"></rect><text x="10" y="900" svgjs:data="{&quot;leading&quot;:&quot;1.3&quot;}"><tspan dy="0" x="10" svgjs:data="{&quot;newLined&quot;:true}">16 - purple</tspan></text><rect width="45" height="40" x="150" y="870" fill="#9f7aea"></rect><text x="250" y="884" svgjs:data="{&quot;leading&quot;:&quot;1.3&quot;}"><tspan dy="0" x="250" svgjs:data="{&quot;newLined&quot;:true}">0</tspan></text><rect width="50" height="25" x="250" y="886" fill="#faf5ff"></rect><text x="310" y="884" svgjs:data="{&quot;leading&quot;:&quot;1.3&quot;}"><tspan dy="0" x="310" svgjs:data="{&quot;newLined&quot;:true}">1</tspan></text><rect width="50" height="25" x="310" y="886" fill="#e9d8fd"></rect><text x="370" y="884" svgjs:data="{&quot;leading&quot;:&quot;1.3&quot;}"><tspan dy="0" x="370" svgjs:data="{&quot;newLined&quot;:true}">2</tspan></text><rect width="50" height="25" x="370" y="886" fill="#d6bcfa"></rect><text x="430" y="884" svgjs:data="{&quot;leading&quot;:&quot;1.3&quot;}"><tspan dy="0" x="430" svgjs:data="{&quot;newLined&quot;:true}">3</tspan></text><rect width="50" height="25" x="430" y="886" fill="#b794f4"></rect><text x="490" y="884" svgjs:data="{&quot;leading&quot;:&quot;1.3&quot;}"><tspan dy="0" x="490" svgjs:data="{&quot;newLined&quot;:true}">4</tspan></text><rect width="50" height="25" x="490" y="886" fill="#9f7aea"></rect><text x="550" y="884" svgjs:data="{&quot;leading&quot;:&quot;1.3&quot;}"><tspan dy="0" x="550" svgjs:data="{&quot;newLined&quot;:true}">5</tspan></text><rect width="50" height="25" x="550" y="886" fill="#805ad5"></rect><text x="610" y="884" svgjs:data="{&quot;leading&quot;:&quot;1.3&quot;}"><tspan dy="0" x="610" svgjs:data="{&quot;newLined&quot;:true}">6</tspan></text><rect width="50" height="25" x="610" y="886" fill="#6b46c1"></rect><text x="670" y="884" svgjs:data="{&quot;leading&quot;:&quot;1.3&quot;}"><tspan dy="0" x="670" svgjs:data="{&quot;newLined&quot;:true}">7</tspan></text><rect width="50" height="25" x="670" y="886" fill="#553c9a"></rect><text x="730" y="884" svgjs:data="{&quot;leading&quot;:&quot;1.3&quot;}"><tspan dy="0" x="730" svgjs:data="{&quot;newLined&quot;:true}">8</tspan></text><rect width="50" height="25" x="730" y="886" fill="#44337a"></rect><text x="10" y="950" svgjs:data="{&quot;leading&quot;:&quot;1.3&quot;}"><tspan dy="0" x="10" svgjs:data="{&quot;newLined&quot;:true}">17 - pink</tspan></text><rect width="45" height="40" x="150" y="920" fill="#ed64a6"></rect><text x="250" y="934" svgjs:data="{&quot;leading&quot;:&quot;1.3&quot;}"><tspan dy="0" x="250" svgjs:data="{&quot;newLined&quot;:true}">0</tspan></text><rect width="50" height="25" x="250" y="936" fill="#fff5f7"></rect><text x="310" y="934" svgjs:data="{&quot;leading&quot;:&quot;1.3&quot;}"><tspan dy="0" x="310" svgjs:data="{&quot;newLined&quot;:true}">1</tspan></text><rect width="50" height="25" x="310" y="936" fill="#fed7e2"></rect><text x="370" y="934" svgjs:data="{&quot;leading&quot;:&quot;1.3&quot;}"><tspan dy="0" x="370" svgjs:data="{&quot;newLined&quot;:true}">2</tspan></text><rect width="50" height="25" x="370" y="936" fill="#fbb6ce"></rect><text x="430" y="934" svgjs:data="{&quot;leading&quot;:&quot;1.3&quot;}"><tspan dy="0" x="430" svgjs:data="{&quot;newLined&quot;:true}">3</tspan></text><rect width="50" height="25" x="430" y="936" fill="#f687b3"></rect><text x="490" y="934" svgjs:data="{&quot;leading&quot;:&quot;1.3&quot;}"><tspan dy="0" x="490" svgjs:data="{&quot;newLined&quot;:true}">4</tspan></text><rect width="50" height="25" x="490" y="936" fill="#ed64a6"></rect><text x="550" y="934" svgjs:data="{&quot;leading&quot;:&quot;1.3&quot;}"><tspan dy="0" x="550" svgjs:data="{&quot;newLined&quot;:true}">5</tspan></text><rect width="50" height="25" x="550" y="936" fill="#d53f8c"></rect><text x="610" y="934" svgjs:data="{&quot;leading&quot;:&quot;1.3&quot;}"><tspan dy="0" x="610" svgjs:data="{&quot;newLined&quot;:true}">6</tspan></text><rect width="50" height="25" x="610" y="936" fill="#b83280"></rect><text x="670" y="934" svgjs:data="{&quot;leading&quot;:&quot;1.3&quot;}"><tspan dy="0" x="670" svgjs:data="{&quot;newLined&quot;:true}">7</tspan></text><rect width="50" height="25" x="670" y="936" fill="#97266d"></rect><text x="730" y="934" svgjs:data="{&quot;leading&quot;:&quot;1.3&quot;}"><tspan dy="0" x="730" svgjs:data="{&quot;newLined&quot;:true}">8</tspan></text><rect width="50" height="25" x="730" y="936" fill="#702459"></rect></svg>